<svg width="11" height="10" viewBox="0 0 11 10" fill="none" xmlns="http://www.w3.org/2000/svg">
<path d="M8.50371 2.94215C8.2501 3.19517 7.83974 3.19517 7.58609 2.94215C7.33304 2.68911 7.33304 2.27814 7.58609 2.02449L9.4208 0.189783C9.67445 -0.063261 10.0848 -0.063261 10.3385 0.189783C10.5915 0.442827 10.5915 0.853791 10.3385 1.10742L8.50371 2.94215ZM5.5282 9.99501L3.03071 7.49751H1.15758C0.81246 7.49751 0.533203 7.21821 0.533203 6.87311V3.12689C0.533203 2.78179 0.81246 2.50251 1.15758 2.50251H3.03069L5.5282 0.0050052C5.5282 0.0050052 6.15258 -0.0730468 6.15258 0.629382V9.37062C6.15258 10.073 5.5282 9.99501 5.5282 9.99501ZM4.90382 2.50251L3.65507 3.75127H1.78196V6.24877H3.65505L4.9038 7.49755L4.90382 2.50251ZM8.02569 5.62438C7.68057 5.62438 7.40131 5.34512 7.40131 5C7.40131 4.6549 7.68057 4.37562 8.02569 4.37562H9.8988C10.2439 4.37562 10.5232 4.6549 10.5232 5C10.5232 5.34512 10.2439 5.62438 9.8988 5.62438H8.02569ZM8.50371 7.05787L10.3385 8.89258C10.5915 9.14623 10.5915 9.55719 10.3385 9.81022C10.0848 10.0633 9.67445 10.0633 9.4208 9.81022L7.58609 7.97551C7.33304 7.72186 7.33304 7.31091 7.58609 7.05787C7.83974 6.80483 8.2501 6.80483 8.50371 7.05787Z" fill="#676767"/>
</svg>
