<svg width="12" height="12" viewBox="0 0 12 12" fill="none" xmlns="http://www.w3.org/2000/svg">
<path d="M9.62305 4.63623H5.53214C5.03006 4.63623 4.62305 5.04324 4.62305 5.54532V9.63623C4.62305 10.1383 5.03006 10.5453 5.53214 10.5453H9.62305C10.1251 10.5453 10.5321 10.1383 10.5321 9.63623V5.54532C10.5321 5.04324 10.1251 4.63623 9.62305 4.63623Z" stroke="#676767" stroke-width="2" stroke-linecap="round" stroke-linejoin="round"/>
<path d="M2.80504 7.36368H2.3505C2.10939 7.36368 1.87816 7.2679 1.70767 7.09741C1.53719 6.92693 1.44141 6.6957 1.44141 6.45459V2.36368C1.44141 2.12257 1.53719 1.89134 1.70767 1.72086C1.87816 1.55037 2.10939 1.45459 2.3505 1.45459H6.44141C6.68251 1.45459 6.91374 1.55037 7.08423 1.72086C7.25472 1.89134 7.3505 2.12257 7.3505 2.36368V2.81823" stroke="#676767" stroke-width="2" stroke-linecap="round" stroke-linejoin="round"/>
</svg>
