<svg width="24" height="24" viewBox="0 0 24 24" fill="none" xmlns="http://www.w3.org/2000/svg">
<path d="M2.85 12.786C1.64 12.774 0.858 12.2 0.858 11.321C0.858 10.442 1.639 9.86897 2.848 9.85597C4.058 9.86897 4.84 10.444 4.84 11.321C4.84 12.198 4.058 12.774 2.85 12.786ZM2.884 9.14797H2.811C1.156 9.17497 0 10.068 0 11.32C0 12.572 1.156 13.467 2.811 13.494H2.884C4.539 13.467 5.695 12.573 5.695 11.32C5.695 10.067 4.539 9.17497 2.884 9.14797ZM21.154 12.786C19.944 12.774 19.162 12.199 19.162 11.321C19.162 10.443 19.944 9.86897 21.153 9.85597C22.363 9.86897 23.144 10.444 23.144 11.321C23.144 12.198 22.363 12.774 21.154 12.786ZM21.189 9.14797H21.116C19.461 9.17497 18.305 10.068 18.305 11.321C18.305 12.574 19.461 13.468 21.115 13.495H21.189C22.844 13.468 24 12.574 24 11.32C24 10.066 22.844 9.17497 21.189 9.14797ZM15.063 12.786C13.853 12.774 13.073 12.199 13.073 11.321C13.073 10.443 13.853 9.86897 15.063 9.85597C16.273 9.86897 17.054 10.444 17.054 11.321C17.054 12.198 16.273 12.774 15.064 12.786H15.063ZM15.099 9.14797H15.026C14.237 9.16097 13.562 9.36997 13.071 9.72197V9.35197H12.214V14.852H13.071V12.921C13.561 13.272 14.237 13.481 15.025 13.495H15.099C16.754 13.468 17.909 12.574 17.909 11.321C17.909 10.068 16.754 9.17497 15.099 9.14797ZM8.955 12.786C7.745 12.774 6.965 12.199 6.965 11.321C6.965 10.443 7.745 9.86897 8.955 9.85597C10.165 9.86897 10.946 10.444 10.946 11.321C10.946 12.198 10.165 12.774 8.956 12.786H8.955ZM8.992 9.14797H8.92C8.131 9.16097 7.456 9.36997 6.965 9.72197V9.35197H6.109V14.852H6.965V12.921C7.456 13.272 8.131 13.481 8.92 13.495C8.94433 13.4952 8.96867 13.4952 8.993 13.495C10.648 13.468 11.804 12.574 11.804 11.321C11.804 10.068 10.648 9.17497 8.994 9.14797H8.992Z" fill="#2D683D"/>
</svg>
