<svg width="24" height="24" viewBox="0 0 24 24" fill="none" xmlns="http://www.w3.org/2000/svg">
<path d="M21.044 12.2881C21.044 12.7881 20.701 13.1551 20.229 13.1551C19.765 13.1551 19.402 12.7751 19.402 12.2881C19.402 11.7781 19.745 11.4201 20.217 11.4201C20.681 11.4201 21.044 11.8011 21.044 12.2881ZM6.739 11.3681C6.61389 11.3638 6.48957 11.3894 6.37635 11.4428C6.26313 11.4962 6.16427 11.5758 6.088 11.6751C5.93516 11.8886 5.8733 12.154 5.916 12.4131L7.395 11.7991C7.34021 11.6707 7.2487 11.5614 7.13199 11.4849C7.01527 11.4084 6.87855 11.3681 6.739 11.3691V11.3681ZM13.702 11.4201C13.23 11.4201 12.886 11.7781 12.886 12.2881C12.886 12.7741 13.25 13.1551 13.714 13.1551C14.186 13.1551 14.529 12.7871 14.529 12.2881C14.529 11.8011 14.166 11.4201 13.702 11.4201ZM24 7.99707V16.0031H0V7.99707H24ZM5.01 13.0501H3.088V9.82507H2.23V13.8281H5.01V13.0501ZM6.147 12.9561L8.31 12.0591C8.27135 11.7429 8.14295 11.4445 7.94 11.1991C7.656 10.8691 7.236 10.6941 6.724 10.6941C5.793 10.6941 5.091 11.3801 5.091 12.2871C5.091 13.2171 5.795 13.8801 6.817 13.8801C7.389 13.8801 7.975 13.6081 8.249 13.2911L7.714 12.8801C7.357 13.1441 7.154 13.2061 6.829 13.2061C6.537 13.2061 6.309 13.1161 6.147 12.9561ZM11.717 11.9171C11.717 11.2081 11.21 10.6941 10.465 10.6941C10.271 10.6949 10.0797 10.7398 9.90561 10.8253C9.7315 10.9109 9.57913 11.035 9.46 11.1881V10.7461H8.614V13.8271H9.46V12.0741C9.46 11.7581 9.705 11.4231 10.158 11.4231C10.508 11.4231 10.87 11.6661 10.87 12.0741V13.8271H11.717V11.9171ZM15.364 12.2871C15.364 11.3831 14.639 10.6941 13.714 10.6941C12.781 10.6941 12.051 11.3941 12.051 12.2871C12.051 13.1901 12.777 13.8791 13.702 13.8791C14.634 13.8791 15.364 13.1791 15.364 12.2871ZM17.43 13.8271L18.698 10.7461H17.731L16.966 12.8451L16.201 10.7451H15.235L16.503 13.8261L17.43 13.8271ZM21.879 12.2871C21.879 11.3831 21.154 10.6941 20.229 10.6941C19.297 10.6941 18.567 11.3941 18.567 12.2871C18.567 13.1901 19.292 13.8791 20.217 13.8791C21.149 13.8791 21.879 13.1791 21.879 12.2871Z" fill="#E2231A"/>
</svg>
