<svg width="24" height="24" viewBox="0 0 24 24" fill="none" xmlns="http://www.w3.org/2000/svg">
<path d="M19.8166 10.2809L19.8625 12.9743H19.8395L19.0602 10.2809H17.7765V13.6734H18.6246L18.5788 10.8884H18.6018L19.4384 13.6734H20.6648V10.2809H19.8166ZM3.6676 10.2809L3.0258 13.7079H3.9542L4.4241 10.5904H4.447L4.9055 13.7078H5.8224L5.192 10.2809H3.6676ZM8.8481 10.2809L8.4241 12.8941H8.4011L7.9771 10.2809H6.5788L6.51 13.7079H7.3696L7.3926 10.6247H7.404L7.977 13.7078H8.8481L9.4212 10.6248H9.4442L9.467 13.7078H10.3266L10.2464 10.2809H8.8481ZM1.5817 12.7336C1.616 12.8138 1.6046 12.9285 1.5931 12.9858C1.5702 13.1004 1.49 13.215 1.2607 13.215C1.043 13.215 0.9169 13.089 0.9169 12.9055V12.5732H0V12.8368C0 13.6047 0.6074 13.8339 1.2493 13.8339C1.8682 13.8339 2.3839 13.6161 2.4642 13.0545C2.51 12.7565 2.4756 12.5617 2.4642 12.4929C2.3037 11.7709 0.9972 11.5646 0.9054 11.1634C0.894 11.0946 0.894 11.0259 0.9054 10.98C0.9284 10.8654 1.0086 10.7508 1.2149 10.7508C1.4212 10.7508 1.5359 10.8768 1.5359 11.0603V11.2666H2.3954V11.0259C2.3954 10.2809 1.7192 10.1663 1.2378 10.1663C0.6304 10.1663 0.1261 10.3726 0.0344 10.9227C0.0114 11.0717 0 11.2093 0.0458 11.3812C0.1834 12.0918 1.4099 12.2981 1.5817 12.7336ZM12.7336 12.7336C12.7679 12.8139 12.7564 12.917 12.745 12.9858C12.722 13.1004 12.6418 13.215 12.4126 13.215C12.1948 13.215 12.0688 13.089 12.0688 12.9055V12.5732H11.1518V12.8368C11.1518 13.5932 11.7478 13.8225 12.3897 13.8225C13.0086 13.8225 13.5129 13.6162 13.5931 13.0431C13.639 12.7451 13.6046 12.5617 13.5931 12.4815C13.4556 11.7709 12.1604 11.5531 12.0688 11.1635C12.0573 11.0947 12.0573 11.0259 12.0688 10.98C12.0917 10.8654 12.1719 10.7508 12.3782 10.7508C12.573 10.7508 12.6992 10.8768 12.6992 11.0603V11.2666H13.5472V11.0259C13.5472 10.2809 12.8825 10.1663 12.4012 10.1663C11.7937 10.1663 11.3008 10.3611 11.2092 10.9227C11.1862 11.0717 11.1862 11.2093 11.2206 11.3812C11.3582 12.0918 12.5616 12.2866 12.7336 12.7336ZM15.6218 13.1921C15.8625 13.1921 15.9312 13.0316 15.9541 12.9399C15.9656 12.9056 15.9656 12.8482 15.9656 12.8139V10.2809H16.8366V12.7451C16.8366 12.8139 16.8366 12.9399 16.8252 12.9743C16.7679 13.6162 16.2636 13.8225 15.6332 13.8225C15.0029 13.8225 14.4986 13.6162 14.4412 12.9743C14.4412 12.9399 14.4298 12.8139 14.4298 12.7451V10.2809H15.3008V12.8139C15.3008 12.8597 15.3008 12.9055 15.3123 12.9399C15.3123 13.0316 15.3811 13.1921 15.6218 13.1921ZM22.7736 13.1577C23.0258 13.1577 23.106 12.9972 23.1289 12.9055C23.1404 12.8712 23.1404 12.8138 23.1404 12.7795V12.2866H22.7851V11.7823H24V12.6993C24 12.768 24 12.8138 23.9885 12.9285C23.9312 13.5588 23.3925 13.7766 22.7851 13.7766C22.1776 13.7766 21.639 13.5588 21.5817 12.9285C21.5702 12.8138 21.5702 12.768 21.5702 12.6992V11.2552C21.5702 11.1978 21.5817 11.0832 21.5817 11.0259C21.6619 10.384 22.1777 10.1777 22.7851 10.1777C23.3925 10.1777 23.9198 10.384 23.9885 11.0259C24 11.129 24 11.2551 24 11.2551V11.3697H23.1404V11.1749C23.1404 11.1749 23.1404 11.0946 23.1289 11.0488C23.1175 10.9686 23.0487 10.7967 22.7851 10.7967C22.533 10.7967 22.4641 10.9571 22.4413 11.0488C22.4298 11.0946 22.4298 11.152 22.4298 11.2093V12.7795C22.4298 12.8253 22.4298 12.8711 22.4413 12.9055C22.4413 12.9972 22.533 13.1577 22.7736 13.1577Z" fill="#1428A0"/>
</svg>
