<svg width="24" height="24" viewBox="0 0 24 24" fill="none" xmlns="http://www.w3.org/2000/svg">
<g clip-path="url(#clip0_1312_2005)">
<path d="M12 0C8.016 0 4.756 0.255 2.493 2.516C0.23 4.776 0 8.033 0 12.012C0 15.992 0.23 19.247 2.494 21.509C4.757 23.77 8.017 24 12 24C15.983 24 19.243 23.77 21.506 21.509C23.77 19.247 24 15.99 24 12.012C24 8.028 23.767 4.769 21.498 2.508C19.234 0.252 15.978 0 12 0ZM4.906 7.405H10.53C12 7.405 13.537 7.473 14.294 8.232C15.04 8.978 15.121 10.465 15.124 11.908V16.448C15.1232 16.4876 15.1068 16.5253 15.0783 16.5528C15.0498 16.5804 15.0116 16.5955 14.972 16.595H13.025C13.0053 16.5953 12.9857 16.5916 12.9674 16.5844C12.9491 16.5771 12.9325 16.5662 12.9183 16.5525C12.9042 16.5387 12.893 16.5224 12.8852 16.5043C12.8774 16.4862 12.8733 16.4667 12.873 16.447V11.83C12.871 11.024 12.825 10.196 12.409 9.779C12.051 9.419 11.383 9.338 10.689 9.321H7.158C7.11856 9.32073 7.0806 9.336 7.05234 9.36352C7.02408 9.39103 7.00779 9.42857 7.007 9.468V16.448C7.00674 16.4677 7.0026 16.4872 6.99482 16.5053C6.98704 16.5234 6.97577 16.5397 6.96166 16.5535C6.94754 16.5672 6.93086 16.5781 6.91256 16.5854C6.89426 16.5926 6.8747 16.5963 6.855 16.596H4.906C4.86656 16.596 4.82871 16.5805 4.80063 16.5528C4.77256 16.5251 4.75653 16.4874 4.756 16.448V7.554C4.75626 7.51439 4.77218 7.47649 4.80029 7.44858C4.82839 7.42067 4.86639 7.405 4.906 7.405ZM17.037 7.405H18.986C19.0258 7.405 19.0639 7.4208 19.0921 7.44893C19.1202 7.47706 19.136 7.51522 19.136 7.555V16.447C19.1355 16.4864 19.1194 16.5241 19.0914 16.5518C19.0633 16.5795 19.0254 16.595 18.986 16.595H17.037C16.9974 16.5953 16.9593 16.5799 16.931 16.5521C16.9027 16.5244 16.8865 16.4866 16.886 16.447V7.554C16.8861 7.5343 16.8901 7.51482 16.8978 7.49667C16.9055 7.47852 16.9166 7.46206 16.9306 7.44823C16.9447 7.43439 16.9613 7.42345 16.9795 7.41603C16.9978 7.40862 17.0173 7.40487 17.037 7.405ZM8.92 10.948H10.966C11.049 10.948 11.116 11.014 11.116 11.095V16.447C11.1155 16.4864 11.0994 16.5241 11.0714 16.5518C11.0433 16.5795 11.0054 16.595 10.966 16.595H8.92C8.9003 16.5953 8.88074 16.5916 8.86244 16.5844C8.84414 16.5771 8.82746 16.5662 8.81334 16.5525C8.79923 16.5387 8.78796 16.5224 8.78018 16.5043C8.7724 16.4862 8.76826 16.4667 8.768 16.447V11.095C8.76879 11.0554 8.78521 11.0177 8.81369 10.9902C8.84217 10.9626 8.88039 10.9475 8.92 10.948Z" fill="#FF6900"/>
</g>
<defs>
<clipPath id="clip0_1312_2005">
<rect width="24" height="24" fill="white"/>
</clipPath>
</defs>
</svg>
