<svg width="24" height="24" viewBox="0 0 24 24" fill="none" xmlns="http://www.w3.org/2000/svg">
<g clip-path="url(#clip0_1312_2001)">
<path d="M3.67 6.13996C3.67 6.13996 1.82 7.90996 1.72 9.77996V10.13C1.8 11.64 2.94 12.53 2.94 12.53C4.77 14.32 9.2 16.57 10.24 17.08C10.24 17.08 10.3 17.11 10.34 17.07L10.36 17.03V16.99C7.52 10.8 3.67 6.13996 3.67 6.13996ZM9.65 18.6C9.63 18.52 9.55 18.52 9.55 18.52L2.17 18.78C2.97 20.21 4.32 21.31 5.73 20.98C6.69 20.73 8.89 19.2 9.61 18.68C9.67 18.63 9.65 18.59 9.65 18.59V18.6ZM9.73 17.82C6.49 15.63 0.21 12.28 0.21 12.28C0.06 12.74 0.01 13.18 0 13.58V13.65C0 14.72 0.4 15.47 0.4 15.47C1.2 17.16 2.74 17.67 2.74 17.67C3.44 17.97 4.14 17.98 4.14 17.98C4.26 18 8.54 17.98 9.68 17.98C9.73 17.98 9.76 17.93 9.76 17.93V17.87C9.76 17.84 9.73 17.82 9.73 17.82ZM9.06 3.18996C8.35099 3.37099 7.71874 3.77466 7.25615 4.34165C6.79356 4.90863 6.52502 5.60905 6.49 6.33996V6.74996C6.52 7.34996 6.65 7.79996 6.65 7.79996C7.31 10.7 10.51 15.45 11.2 16.45C11.25 16.5 11.3 16.48 11.3 16.48C11.3192 16.4717 11.3353 16.4576 11.3461 16.4396C11.3568 16.4217 11.3617 16.4008 11.36 16.38C12.42 5.77996 10.25 2.95996 10.25 2.95996C9.93 2.97996 9.06 3.18996 9.06 3.18996ZM17.359 5.45996C17.359 5.45996 16.869 3.65996 14.919 3.17996C14.919 3.17996 14.349 3.03996 13.749 2.95996C13.749 2.95996 11.569 5.76996 12.629 16.39C12.639 16.46 12.689 16.47 12.689 16.47C12.759 16.5 12.789 16.44 12.789 16.44C13.509 15.41 16.689 10.68 17.339 7.79996C17.339 7.79996 17.699 6.39996 17.359 5.45996ZM14.439 18.53C14.439 18.53 14.369 18.53 14.349 18.58C14.349 18.58 14.339 18.65 14.379 18.68C15.079 19.19 17.229 20.68 18.259 20.98C18.259 20.98 18.419 21.03 18.689 21.04H18.829C19.519 21.02 20.729 20.67 21.829 18.78L14.429 18.53H14.439ZM22.269 10.12C22.409 8.05996 20.329 6.14996 20.329 6.13996C20.329 6.13996 16.479 10.8 13.659 16.94C13.659 16.94 13.629 17.02 13.679 17.07L13.719 17.08H13.779C14.839 16.55 19.239 14.31 21.059 12.54C21.059 12.54 22.209 11.61 22.269 10.12ZM23.789 12.26C23.789 12.26 17.509 15.63 14.269 17.81C14.269 17.81 14.219 17.85 14.239 17.92C14.239 17.92 14.269 17.98 14.309 17.98C15.469 17.98 19.869 17.98 19.979 17.96C19.979 17.96 20.549 17.94 21.249 17.67C21.249 17.67 22.809 17.17 23.619 15.4C23.619 15.4 24.349 13.95 23.789 12.26Z" fill="#FF0000"/>
</g>
<defs>
<clipPath id="clip0_1312_2001">
<rect width="24" height="24" fill="white"/>
</clipPath>
</defs>
</svg>
