<svg width="363" height="363" viewBox="0 0 363 363" fill="none" xmlns="http://www.w3.org/2000/svg">
<path d="M75.3037 9.66211C75.1107 10.7121 74.9187 11.7331 74.7267 12.7281C74.5347 13.7231 74.3437 14.6911 74.1507 15.6321C73.9587 16.5741 73.7657 17.4891 73.5707 18.3801C73.3757 19.2711 73.1797 20.1361 72.9817 20.9771C72.7827 21.8181 72.5817 22.6351 72.3777 23.4281C72.1727 24.2211 71.9657 24.9911 71.7527 25.7391C71.5407 26.4861 71.3237 27.2121 71.1017 27.9151C70.8797 28.6181 70.6527 29.3001 70.4197 29.9621C70.1867 30.6231 69.9477 31.2641 69.7007 31.8851C69.4537 32.5061 69.2017 33.1071 68.9397 33.6891C68.6787 34.2711 68.4097 34.8351 68.1317 35.3801C67.8537 35.9261 67.5667 36.4531 67.2707 36.9641C66.9737 37.4751 66.6677 37.9681 66.3507 38.4461C66.0337 38.9241 65.7057 39.3851 65.3667 39.8311C65.0277 40.2771 64.6767 40.7081 64.3137 41.1251C63.9507 41.5421 63.5747 41.9441 63.1857 42.3331C62.7967 42.7221 62.3937 43.0981 61.9777 43.4611C61.5607 43.8241 61.1297 44.1751 60.6837 44.5141C60.2377 44.8531 59.7757 45.1811 59.2987 45.4981C58.8217 45.8151 58.3277 46.1211 57.8167 46.4181C57.3057 46.7151 56.7787 47.0011 56.2327 47.2791C55.6867 47.5571 55.1237 47.8261 54.5417 48.0871C53.9597 48.3481 53.3577 48.6011 52.7367 48.8481C52.1157 49.0941 51.4747 49.3331 50.8137 49.5671C50.1527 49.8001 49.4707 50.0271 48.7667 50.2491C48.0637 50.4711 47.3377 50.6871 46.5907 50.8991C45.8437 51.1111 45.0737 51.3191 44.2797 51.5241C43.4867 51.7291 42.6697 51.9301 41.8287 52.1281C40.9877 52.3261 40.1227 52.5231 39.2317 52.7171C38.3417 52.9121 37.4257 53.1051 36.4837 53.2971C35.5417 53.4891 34.5747 53.6811 33.5797 53.8731C32.5847 54.0651 31.5627 54.2571 30.5137 54.4501C31.5637 54.6431 32.5847 54.8351 33.5797 55.0271C34.5747 55.2191 35.5427 55.4101 36.4837 55.6031C37.4257 55.7951 38.3407 55.9881 39.2317 56.1831C40.1227 56.3771 40.9877 56.5741 41.8287 56.7721C42.6697 56.9711 43.4867 57.1721 44.2797 57.3761C45.0727 57.5801 45.8427 57.7881 46.5907 58.0011C47.3387 58.2141 48.0637 58.4301 48.7667 58.6511C49.4697 58.8731 50.1517 59.1001 50.8137 59.3331C51.4747 59.5661 52.1157 59.8051 52.7367 60.0511C53.3577 60.2971 53.9587 60.5501 54.5417 60.8121C55.1237 61.0731 55.6877 61.3421 56.2327 61.6201C56.7787 61.8981 57.3057 62.1851 57.8167 62.4811C58.3277 62.7781 58.8207 63.0841 59.2987 63.4011C59.7757 63.7181 60.2377 64.0461 60.6837 64.3851C61.1297 64.7241 61.5607 65.0751 61.9777 65.4381C62.3947 65.8011 62.7967 66.1771 63.1857 66.5661C63.5747 66.9551 63.9507 67.3581 64.3137 67.7741C64.6767 68.1911 65.0277 68.6221 65.3667 69.0681C65.7057 69.5141 66.0337 69.9761 66.3507 70.4531C66.6677 70.9311 66.9737 71.4241 67.2707 71.9351C67.5677 72.4461 67.8537 72.9731 68.1317 73.5191C68.4097 74.0651 68.6787 74.6281 68.9397 75.2101C69.2007 75.7921 69.4537 76.3941 69.7007 77.0151C69.9467 77.6361 70.1857 78.2761 70.4197 78.9381C70.6527 79.5991 70.8797 80.2811 71.1017 80.9851C71.3237 81.6881 71.5397 82.4141 71.7527 83.1611C71.9647 83.9081 72.1727 84.6781 72.3777 85.4721C72.5827 86.2651 72.7837 87.0821 72.9817 87.9231C73.1807 88.7641 73.3767 89.6291 73.5707 90.5201C73.7657 91.4101 73.9577 92.3261 74.1507 93.2681C74.3427 94.2101 74.5347 95.1781 74.7267 96.1721C74.9187 97.1671 75.1107 98.1891 75.3037 99.2381C75.4967 98.1881 75.6887 97.1661 75.8807 96.1721C76.0727 95.1771 76.2637 94.2091 76.4567 93.2681C76.6487 92.3261 76.8417 91.4111 77.0367 90.5201C77.2317 89.6291 77.4277 88.7641 77.6257 87.9231C77.8247 87.0821 78.0257 86.2651 78.2297 85.4721C78.4337 84.6791 78.6417 83.9091 78.8547 83.1611C79.0667 82.4141 79.2837 81.6881 79.5057 80.9851C79.7277 80.2821 79.9547 79.6001 80.1877 78.9381C80.4207 78.2771 80.6597 77.6361 80.9067 77.0151C81.1527 76.3941 81.4057 75.7931 81.6677 75.2101C81.9287 74.6281 82.1977 74.0641 82.4757 73.5191C82.7537 72.9731 83.0407 72.4461 83.3367 71.9351C83.6337 71.4241 83.9397 70.9311 84.2567 70.4531C84.5737 69.9751 84.9017 69.5141 85.2407 69.0681C85.5797 68.6221 85.9307 68.1911 86.2937 67.7741C86.6567 67.3571 87.0327 66.9551 87.4217 66.5661C87.8107 66.1771 88.2137 65.8011 88.6297 65.4381C89.0467 65.0751 89.4777 64.7241 89.9237 64.3851C90.3697 64.0461 90.8317 63.7181 91.3087 63.4011C91.7857 63.0841 92.2797 62.7781 92.7907 62.4811C93.3017 62.1841 93.8287 61.8981 94.3747 61.6201C94.9207 61.3421 95.4837 61.0731 96.0657 60.8121C96.6477 60.5511 97.2497 60.2981 97.8697 60.0511C98.4907 59.8051 99.1317 59.5661 99.7927 59.3331C100.454 59.1001 101.136 58.8731 101.84 58.6511C102.543 58.4291 103.269 58.2131 104.016 58.0011C104.763 57.7891 105.533 57.5811 106.327 57.3761C107.12 57.1721 107.937 56.9701 108.778 56.7721C109.619 56.5731 110.484 56.3771 111.375 56.1831C112.266 55.9881 113.181 55.7951 114.123 55.6031C115.065 55.4111 116.033 55.2191 117.027 55.0271C118.022 54.8351 119.044 54.6431 120.093 54.4501C119.043 54.2571 118.022 54.0651 117.027 53.8731C116.032 53.6811 115.064 53.4891 114.123 53.2971C113.181 53.1051 112.266 52.9121 111.375 52.7171C110.485 52.5221 109.619 52.3261 108.778 52.1281C107.937 51.9301 107.12 51.7281 106.327 51.5241C105.534 51.3201 104.764 51.1121 104.016 50.8991C103.269 50.6871 102.543 50.4701 101.84 50.2491C101.137 50.0271 100.455 49.8001 99.7927 49.5671C99.1317 49.3341 98.4907 49.0951 97.8697 48.8481C97.2487 48.6021 96.6477 48.3491 96.0657 48.0871C95.4837 47.8261 94.9197 47.5571 94.3747 47.2791C93.8287 47.0011 93.3017 46.7141 92.7907 46.4181C92.2797 46.1211 91.7867 45.8151 91.3087 45.4981C90.8307 45.1811 90.3697 44.8531 89.9237 44.5141C89.4777 44.1751 89.0467 43.8241 88.6297 43.4611C88.2127 43.0981 87.8107 42.7221 87.4217 42.3331C87.0327 41.9441 86.6567 41.5411 86.2937 41.1251C85.9307 40.7081 85.5797 40.2771 85.2407 39.8311C84.9017 39.3851 84.5737 38.9231 84.2567 38.4461C83.9397 37.9681 83.6337 37.4751 83.3367 36.9641C83.0397 36.4531 82.7537 35.9261 82.4757 35.3801C82.1977 34.8341 81.9287 34.2711 81.6677 33.6891C81.4067 33.1071 81.1537 32.5051 80.9067 31.8851C80.6607 31.2641 80.4217 30.6231 80.1877 29.9621C79.9547 29.3011 79.7277 28.6191 79.5057 27.9151C79.2837 27.2111 79.0677 26.4871 78.8547 25.7391C78.6427 24.9911 78.4347 24.2221 78.2297 23.4281C78.0247 22.6351 77.8237 21.8181 77.6257 20.9771C77.4267 20.1361 77.2307 19.2711 77.0367 18.3801C76.8417 17.4901 76.6487 16.5741 76.4567 15.6321C76.2647 14.6901 76.0727 13.7231 75.8807 12.7281C75.6887 11.7331 75.4967 10.7111 75.3037 9.66211Z" fill="black"/>
<path d="M301.181 236.631C300.988 237.681 300.796 238.703 300.604 239.697C300.412 240.692 300.221 241.66 300.028 242.601C299.836 243.543 299.643 244.458 299.448 245.349C299.254 246.239 299.057 247.105 298.859 247.946C298.661 248.787 298.459 249.604 298.255 250.397C298.051 251.19 297.843 251.96 297.63 252.708C297.418 253.456 297.201 254.181 296.979 254.884C296.757 255.587 296.53 256.269 296.297 256.931C296.064 257.592 295.825 258.233 295.578 258.854C295.332 259.475 295.079 260.076 294.817 260.658C294.556 261.24 294.287 261.804 294.009 262.349C293.731 262.894 293.444 263.422 293.148 263.933C292.851 264.444 292.545 264.937 292.228 265.415C291.911 265.893 291.583 266.354 291.244 266.8C290.905 267.246 290.554 267.677 290.191 268.094C289.828 268.511 289.452 268.913 289.063 269.302C288.674 269.691 288.271 270.067 287.855 270.43C287.438 270.793 287.007 271.144 286.561 271.483C286.115 271.822 285.653 272.15 285.176 272.467C284.698 272.784 284.205 273.09 283.694 273.387C283.184 273.684 282.656 273.97 282.11 274.248C281.564 274.526 281.001 274.795 280.418 275.056C279.836 275.317 279.235 275.57 278.614 275.817C277.993 276.063 277.352 276.302 276.691 276.535C276.03 276.768 275.348 276.995 274.644 277.217C273.941 277.439 273.215 277.655 272.468 277.868C271.721 278.08 270.951 278.288 270.157 278.493C269.364 278.698 268.547 278.899 267.706 279.097C266.865 279.296 266 279.492 265.109 279.686C264.218 279.881 263.303 280.074 262.361 280.266C261.419 280.458 260.452 280.65 259.457 280.842C258.462 281.034 257.44 281.226 256.391 281.419C257.441 281.612 258.463 281.804 259.457 281.996C260.452 282.188 261.42 282.38 262.361 282.572C263.303 282.764 264.218 282.957 265.109 283.152C265.999 283.347 266.865 283.543 267.706 283.741C268.547 283.94 269.364 284.141 270.157 284.345C270.95 284.55 271.72 284.757 272.468 284.97C273.216 285.182 273.941 285.399 274.644 285.621C275.347 285.843 276.029 286.07 276.691 286.303C277.352 286.536 277.993 286.775 278.614 287.021C279.235 287.267 279.836 287.52 280.418 287.782C281 288.043 281.564 288.312 282.11 288.59C282.656 288.868 283.183 289.155 283.694 289.451C284.205 289.748 284.698 290.054 285.176 290.371C285.654 290.688 286.115 291.016 286.561 291.355C287.007 291.694 287.438 292.045 287.855 292.408C288.272 292.771 288.674 293.147 289.063 293.536C289.452 293.925 289.828 294.328 290.191 294.744C290.554 295.161 290.905 295.592 291.244 296.038C291.583 296.484 291.911 296.946 292.228 297.423C292.545 297.9 292.851 298.394 293.148 298.905C293.444 299.416 293.731 299.943 294.009 300.489C294.287 301.035 294.556 301.598 294.817 302.181C295.078 302.763 295.331 303.364 295.578 303.985C295.824 304.606 296.063 305.247 296.297 305.908C296.53 306.569 296.757 307.251 296.979 307.955C297.201 308.658 297.417 309.384 297.63 310.131C297.842 310.878 298.05 311.649 298.255 312.442C298.459 313.235 298.661 314.052 298.859 314.893C299.058 315.734 299.254 316.599 299.448 317.49C299.643 318.38 299.836 319.296 300.028 320.238C300.22 321.18 300.412 322.148 300.604 323.142C300.796 324.137 300.988 325.159 301.181 326.208C301.374 325.158 301.566 324.137 301.758 323.142C301.95 322.147 302.142 321.179 302.334 320.238C302.526 319.296 302.719 318.381 302.914 317.49C303.109 316.599 303.305 315.734 303.503 314.893C303.702 314.052 303.903 313.235 304.107 312.442C304.312 311.649 304.519 310.879 304.732 310.131C304.945 309.383 305.161 308.658 305.383 307.955C305.605 307.252 305.832 306.57 306.065 305.908C306.298 305.247 306.537 304.606 306.784 303.985C307.03 303.364 307.284 302.763 307.544 302.181C307.805 301.599 308.074 301.035 308.352 300.489C308.63 299.943 308.917 299.416 309.213 298.905C309.51 298.394 309.816 297.901 310.133 297.423C310.45 296.945 310.778 296.484 311.117 296.038C311.456 295.592 311.807 295.161 312.17 294.744C312.533 294.327 312.909 293.925 313.298 293.536C313.687 293.147 314.09 292.771 314.506 292.408C314.923 292.045 315.354 291.694 315.8 291.355C316.246 291.016 316.708 290.688 317.185 290.371C317.663 290.054 318.156 289.748 318.667 289.451C319.178 289.154 319.705 288.868 320.251 288.59C320.797 288.312 321.36 288.043 321.942 287.782C322.524 287.521 323.125 287.268 323.746 287.021C324.367 286.775 325.008 286.536 325.669 286.303C326.33 286.07 327.012 285.843 327.716 285.621C328.419 285.399 329.144 285.183 329.892 284.97C330.64 284.758 331.409 284.55 332.203 284.345C332.996 284.14 333.813 283.939 334.654 283.741C335.495 283.542 336.36 283.346 337.251 283.152C338.141 282.957 339.057 282.764 339.999 282.572C340.941 282.38 341.909 282.188 342.903 281.996C343.898 281.804 344.92 281.612 345.969 281.419C344.919 281.226 343.898 281.034 342.903 280.842C341.908 280.65 340.94 280.458 339.999 280.266C339.057 280.074 338.142 279.881 337.251 279.686C336.36 279.491 335.495 279.295 334.654 279.097C333.813 278.898 332.996 278.697 332.203 278.493C331.41 278.289 330.64 278.081 329.892 277.868C329.144 277.655 328.419 277.439 327.716 277.217C327.013 276.995 326.331 276.768 325.669 276.535C325.008 276.302 324.367 276.063 323.746 275.817C323.125 275.571 322.524 275.317 321.942 275.056C321.36 274.795 320.796 274.526 320.251 274.248C319.705 273.97 319.178 273.683 318.667 273.387C318.157 273.09 317.663 272.784 317.185 272.467C316.708 272.15 316.246 271.822 315.8 271.483C315.354 271.144 314.923 270.793 314.506 270.43C314.089 270.067 313.687 269.691 313.298 269.302C312.909 268.913 312.533 268.51 312.17 268.094C311.807 267.677 311.456 267.246 311.117 266.8C310.778 266.354 310.45 265.892 310.133 265.415C309.816 264.938 309.51 264.444 309.213 263.933C308.916 263.422 308.63 262.895 308.352 262.349C308.074 261.803 307.805 261.24 307.544 260.658C307.283 260.076 307.03 259.474 306.784 258.854C306.538 258.233 306.299 257.592 306.065 256.931C305.832 256.27 305.605 255.588 305.383 254.884C305.161 254.18 304.945 253.456 304.732 252.708C304.52 251.961 304.312 251.191 304.107 250.397C303.902 249.603 303.701 248.787 303.503 247.946C303.304 247.105 303.108 246.24 302.914 245.349C302.719 244.459 302.526 243.543 302.334 242.601C302.142 241.659 301.95 240.691 301.758 239.697C301.566 238.703 301.374 237.681 301.181 236.631Z" fill="black"/>
<path d="M181.172 0.520996C180.392 4.76 179.616 8.88601 178.841 12.902C178.066 16.919 177.293 20.827 176.516 24.629C175.739 28.432 174.96 32.129 174.175 35.724C173.39 39.319 172.597 42.813 171.795 46.209C170.993 49.605 170.181 52.903 169.355 56.106C168.529 59.309 167.69 62.418 166.833 65.437C165.976 68.455 165.102 71.383 164.207 74.223C163.312 77.064 162.395 79.817 161.454 82.487C160.513 85.157 159.547 87.744 158.553 90.251C157.559 92.758 156.536 95.186 155.482 97.537C154.427 99.888 153.341 102.164 152.219 104.367C151.097 106.57 149.939 108.701 148.741 110.763C147.543 112.825 146.307 114.818 145.027 116.747C143.747 118.675 142.424 120.538 141.055 122.34C139.685 124.142 138.269 125.882 136.803 127.565C135.336 129.248 133.819 130.873 132.248 132.444C130.677 134.015 129.052 135.532 127.369 136.999C125.686 138.466 123.946 139.882 122.144 141.251C120.342 142.621 118.479 143.943 116.551 145.223C114.623 146.503 112.63 147.74 110.568 148.937C108.506 150.134 106.375 151.292 104.172 152.415C101.969 153.537 99.6942 154.624 97.3422 155.678C94.9902 156.733 92.5632 157.755 90.0562 158.749C87.5492 159.743 84.9622 160.709 82.2922 161.65C79.6222 162.591 76.8682 163.507 74.0282 164.403C71.1872 165.298 68.2602 166.173 65.2412 167.029C62.2232 167.886 59.1142 168.725 55.9102 169.551C52.7062 170.377 49.4092 171.189 46.0132 171.991C42.6172 172.793 39.1232 173.585 35.5282 174.371C31.9332 175.157 28.2352 175.936 24.4332 176.712C20.6302 177.488 16.7222 178.262 12.7062 179.037C8.68918 179.812 4.56322 180.587 0.324219 181.368C4.56322 182.148 8.68918 182.924 12.7062 183.699C16.7232 184.474 20.6312 185.248 24.4332 186.024C28.2352 186.8 31.9332 187.58 35.5282 188.365C39.1242 189.151 42.6172 189.943 46.0132 190.745C49.4092 191.547 52.7072 192.359 55.9102 193.185C59.1132 194.011 62.2222 194.85 65.2412 195.707C68.2602 196.564 71.1872 197.438 74.0282 198.333C76.8692 199.228 79.6222 200.145 82.2922 201.086C84.9622 202.027 87.5492 202.993 90.0562 203.987C92.5632 204.981 94.9912 206.004 97.3422 207.058C99.6932 208.113 101.969 209.199 104.172 210.321C106.375 211.443 108.506 212.601 110.568 213.799C112.63 214.996 114.623 216.233 116.551 217.513C118.479 218.793 120.343 220.116 122.144 221.485C123.946 222.854 125.686 224.271 127.369 225.737C129.052 227.204 130.677 228.721 132.248 230.292C133.819 231.863 135.336 233.488 136.803 235.171C138.27 236.854 139.686 238.594 141.055 240.396C142.425 242.198 143.747 244.061 145.027 245.989C146.307 247.917 147.543 249.911 148.741 251.972C149.938 254.034 151.096 256.165 152.219 258.368C153.341 260.571 154.428 262.846 155.482 265.198C156.536 267.549 157.559 269.977 158.553 272.484C159.547 274.991 160.513 277.578 161.454 280.248C162.395 282.918 163.311 285.672 164.207 288.512C165.102 291.353 165.977 294.28 166.833 297.299C167.69 300.317 168.529 303.426 169.355 306.63C170.181 309.833 170.993 313.131 171.795 316.527C172.597 319.923 173.389 323.417 174.175 327.012C174.961 330.608 175.74 334.305 176.516 338.107C177.292 341.91 178.066 345.818 178.841 349.834C179.616 353.851 180.391 357.977 181.172 362.215C181.952 357.976 182.728 353.85 183.503 349.834C184.278 345.818 185.052 341.909 185.828 338.107C186.604 334.305 187.384 330.607 188.169 327.012C188.955 323.417 189.747 319.923 190.549 316.527C191.351 313.131 192.163 309.834 192.989 306.63C193.815 303.427 194.654 300.318 195.511 297.299C196.368 294.281 197.242 291.353 198.137 288.512C199.032 285.671 199.949 282.918 200.89 280.248C201.831 277.578 202.797 274.991 203.791 272.484C204.785 269.977 205.808 267.549 206.862 265.198C207.916 262.847 209.003 260.571 210.125 258.368C211.247 256.165 212.405 254.034 213.603 251.972C214.8 249.91 216.037 247.917 217.317 245.989C218.597 244.061 219.92 242.198 221.289 240.396C222.659 238.594 224.075 236.854 225.541 235.171C227.008 233.488 228.525 231.863 230.096 230.292C231.667 228.721 233.292 227.204 234.975 225.737C236.658 224.27 238.398 222.854 240.2 221.485C242.002 220.115 243.865 218.793 245.793 217.513C247.721 216.233 249.714 214.997 251.776 213.799C253.838 212.602 255.969 211.444 258.172 210.321C260.375 209.199 262.65 208.112 265.002 207.058C267.353 206.003 269.781 204.981 272.288 203.987C274.795 202.993 277.382 202.027 280.052 201.086C282.722 200.145 285.476 199.228 288.316 198.333C291.157 197.438 294.084 196.563 297.102 195.707C300.12 194.851 303.229 194.011 306.433 193.185C309.636 192.359 312.934 191.547 316.33 190.745C319.726 189.943 323.22 189.151 326.815 188.365C330.41 187.579 334.107 186.8 337.91 186.024C341.712 185.247 345.62 184.474 349.637 183.699C353.654 182.924 357.78 182.148 362.018 181.368C357.779 180.588 353.653 179.812 349.637 179.037C345.62 178.262 341.712 177.488 337.91 176.712C334.107 175.936 330.41 175.156 326.815 174.371C323.219 173.585 319.726 172.794 316.33 171.991C312.934 171.189 309.637 170.377 306.433 169.551C303.23 168.725 300.121 167.886 297.102 167.029C294.084 166.172 291.156 165.298 288.316 164.403C285.475 163.508 282.722 162.591 280.052 161.65C277.382 160.709 274.795 159.743 272.288 158.749C269.781 157.755 267.353 156.732 265.002 155.678C262.651 154.623 260.375 153.537 258.172 152.415C255.969 151.293 253.838 150.135 251.776 148.937C249.714 147.74 247.721 146.503 245.793 145.223C243.865 143.943 242.001 142.62 240.2 141.251C238.398 139.881 236.658 138.465 234.975 136.999C233.292 135.532 231.667 134.015 230.096 132.444C228.525 130.873 227.008 129.248 225.541 127.565C224.074 125.882 222.658 124.142 221.289 122.34C219.919 120.538 218.597 118.675 217.317 116.747C216.037 114.819 214.8 112.825 213.603 110.763C212.406 108.701 211.248 106.57 210.125 104.367C209.003 102.164 207.916 99.889 206.862 97.537C205.807 95.185 204.785 92.758 203.791 90.251C202.797 87.744 201.831 85.157 200.89 82.487C199.949 79.817 199.033 77.063 198.137 74.223C197.242 71.382 196.367 68.455 195.511 65.437C194.654 62.419 193.814 59.31 192.989 56.106C192.163 52.903 191.351 49.605 190.549 46.209C189.747 42.813 188.955 39.32 188.169 35.724C187.383 32.128 186.604 28.431 185.828 24.629C185.052 20.827 184.278 16.919 183.503 12.902C182.728 8.88501 181.952 4.759 181.172 0.520996Z" fill="black"/>
</svg>
