<svg width="15" height="21" viewBox="0 0 15 21" fill="none" xmlns="http://www.w3.org/2000/svg">
<path d="M7.5 16.8V19.5M7.5 16.8C9.22391 16.8 10.8772 16.1363 12.0962 14.9548C13.3152 13.7733 14 12.1709 14 10.5V8.7M7.5 16.8C5.77609 16.8 4.12279 16.1363 2.90381 14.9548C1.68482 13.7733 1 12.1709 1 10.5V8.7M7.5 1.5C9.03851 1.5 10.2857 2.70883 10.2857 4.2V10.5C10.2857 11.9912 9.03851 13.2 7.5 13.2C5.96149 13.2 4.71429 11.9912 4.71429 10.5V4.2C4.71429 2.70883 5.96149 1.5 7.5 1.5Z" stroke="#7E797B" stroke-width="2" stroke-linecap="round" stroke-linejoin="round"/>
</svg>
