<svg width="11" height="10" viewBox="0 0 11 10" fill="none" xmlns="http://www.w3.org/2000/svg">
<path d="M9.91445 6.25H9.90195C9.73785 6.25 9.58047 6.31519 9.46443 6.43123C9.34839 6.54727 9.2832 6.70465 9.2832 6.86875V8.4375C9.2832 8.52038 9.25028 8.59987 9.19167 8.65847C9.13307 8.71708 9.05358 8.75 8.9707 8.75H2.0957C2.01282 8.75 1.93334 8.71708 1.87473 8.65847C1.81613 8.59987 1.7832 8.52038 1.7832 8.4375V1.5625C1.7832 1.47962 1.81613 1.40013 1.87473 1.34153C1.93334 1.28292 2.01282 1.25 2.0957 1.25H4.91445C5.07856 1.25 5.23594 1.18481 5.35198 1.06877C5.46801 0.952734 5.5332 0.795353 5.5332 0.63125V0.61875C5.5332 0.454647 5.46801 0.297266 5.35198 0.181228C5.23594 0.0651895 5.07856 0 4.91445 0H1.15195C0.98785 0 0.830469 0.0651895 0.714431 0.181228C0.598393 0.297266 0.533203 0.454647 0.533203 0.61875L0.533203 9.38125C0.533203 9.54535 0.598393 9.70273 0.714431 9.81877C0.830469 9.93481 0.98785 10 1.15195 10H9.91445C10.0786 10 10.2359 9.93481 10.352 9.81877C10.468 9.70273 10.5332 9.54535 10.5332 9.38125L10.527 9.375H10.5332V6.86875C10.5332 6.70465 10.468 6.54727 10.352 6.43123C10.2359 6.31519 10.0786 6.25 9.91445 6.25Z" fill="#676767"/>
<path d="M8.32825 1.78486C6.55356 1.91143 5.18762 2.49393 4.26169 3.52268C3.54157 4.33318 3.11572 5.36279 3.05294 6.44518C3.04257 6.53798 3.05188 6.63192 3.08028 6.72088C3.10868 6.80984 3.15552 6.89181 3.21775 6.96143C3.27997 7.03106 3.35618 7.08678 3.4414 7.12496C3.52662 7.16313 3.61893 7.18291 3.71231 7.18299L3.74356 7.17986C3.88579 7.16431 4.018 7.09915 4.11698 6.99583C4.21595 6.89251 4.27538 6.75763 4.28481 6.61486C4.33256 5.77938 4.65424 4.9829 5.20012 4.34861C5.88981 3.58861 6.94794 3.15174 8.34575 3.03924V3.12486H8.32825L8.31481 3.20861L7.5945 3.9358C7.47814 4.05375 7.41291 4.21277 7.41291 4.37846C7.41291 4.54414 7.47814 4.70316 7.5945 4.82111C7.65178 4.87922 7.72003 4.92536 7.7953 4.95686C7.87057 4.98835 7.95134 5.00457 8.03294 5.00457C8.11453 5.00457 8.19531 4.98835 8.27057 4.95686C8.34584 4.92536 8.4141 4.87922 8.47137 4.82111L10.3514 2.92299C10.4678 2.80502 10.5331 2.64594 10.5331 2.48018C10.5331 2.31442 10.4678 2.15533 10.3514 2.03736L8.47637 0.183301C8.4191 0.125241 8.35087 0.079138 8.27563 0.0476711C8.20039 0.0162041 8.11965 0 8.03809 0C7.95654 0 7.8758 0.0162041 7.80056 0.0476711C7.72532 0.079138 7.65708 0.125241 7.59981 0.183301C7.48328 0.301226 7.41794 0.460329 7.41794 0.626114C7.41794 0.791899 7.48328 0.951002 7.59981 1.06893L8.32825 1.78486Z" fill="#676767"/>
</svg>
